<svg xmlns="http://www.w3.org/2000/svg" viewBox="0 0 480 640" role="img" aria-labelledby="title desc">
  <title id="title">Namu Works Jeju Sport Sun Gel</title>
  <desc id="desc">Original synthetic geometric pack-shot for the concept demo.</desc>
  <defs>
    <linearGradient id="background" x1="0" y1="0" x2="1" y2="1"><stop stop-color="#e7ebcf"/><stop offset="1" stop-color="#7ca383"/></linearGradient>
    <linearGradient id="tube" x1="0" y1="0" x2="1" y2="1"><stop stop-color="#f9fbe9"/><stop offset="1" stop-color="#d4e4b7"/></linearGradient>
    <filter id="shadow" x="-30%" y="-30%" width="160%" height="180%"><feDropShadow dx="0" dy="18" stdDeviation="14" flood-color="#35513b" flood-opacity=".26"/></filter>
  </defs>
  <rect width="480" height="640" rx="44" fill="url(#background)"/>
  <path d="M0 100 250 0h230v145L245 240Z" fill="#f9f2c7" fill-opacity=".4"/>
  <path d="m0 470 480-124v294H0Z" fill="#275d4c" fill-opacity=".22"/>
  <g filter="url(#shadow)">
    <path d="M169 108h142l27 358c2 24-17 45-42 45H184c-25 0-44-21-42-45Z" fill="url(#tube)" stroke="#bbcf9a" stroke-width="3"/>
    <path d="M164 446h152l-7 73H171Z" fill="#294f42"/>
    <path d="M181 131h118l12 203H169Z" fill="#f5f7e5"/>
    <path d="m172 334 137-94 4 94Z" fill="#b6d17e" fill-opacity=".58"/>
    <path d="M191 87h98l7 42H184Z" fill="#294f42"/>
    <text x="240" y="177" text-anchor="middle" fill="#294f42" font-family="Arial, sans-serif" font-size="15" font-weight="700" letter-spacing="2">NAMU WORKS</text>
    <text x="240" y="209" text-anchor="middle" fill="#294f42" font-family="Arial, sans-serif" font-size="28" font-weight="700">JEJU SPORT</text>
    <text x="240" y="235" text-anchor="middle" fill="#294f42" font-family="Arial, sans-serif" font-size="12" letter-spacing="2">SUN GEL</text>
    <text x="240" y="387" text-anchor="middle" fill="#294f42" font-family="Arial, sans-serif" font-size="20" font-weight="700">SPF 50</text>
    <text x="240" y="476" text-anchor="middle" fill="#edf4dc" font-family="Arial, sans-serif" font-size="11" letter-spacing="1.5">SYNTHETIC DEMO</text>
  </g>
  <text x="240" y="576" text-anchor="middle" fill="#24483d" font-family="Arial, sans-serif" font-size="14" letter-spacing="2">CONCEPT PACK-SHOT</text>
</svg>
